<svg width="716" height="270" viewBox="0 0 716 270" fill="none" xmlns="http://www.w3.org/2000/svg">
<path fill-rule="evenodd" clip-rule="evenodd" d="M189.144 73.492C183.035 76.8552 172.897 80.6894 166.615 82.015C146.768 86.2064 120.282 82.9253 90.2546 72.558C58.1441 61.4683 30.2742 59.4466 12.728 66.9324C8.02001 68.9416 2.78868 65.4904 2.78868 60.3753V35.587C2.78868 15.9328 18.7353 0 38.4063 0H102.261H168.007C186.513 0 201.399 15.2045 200.992 33.6898L200.529 54.7184C200.356 62.5569 196.018 69.7103 189.144 73.492ZM154.683 34.4836C145.907 39.2624 143.556 50.1881 149.936 56.5572C155.085 61.6985 161.932 62.0848 167.567 57.5521C174.906 51.6487 175.2 45.4251 168.502 37.7409C162.396 30.7368 161.812 30.6018 154.683 34.4836ZM138.56 28.6437C134.899 24.9895 127.361 27.7255 127.361 32.7107C127.361 38.2225 134.401 40.006 138.189 35.4521C140.542 32.6208 140.646 30.7262 138.56 28.6437ZM32.885 22.5684C30.5022 25.823 30.2822 28.6516 32.1401 32.118C36.956 41.1014 48.8779 36.4734 47.4149 26.1882C46.3096 18.4034 37.5365 16.2204 32.885 22.5684ZM11.9272 94.1393C17.7582 91.2868 27.8963 87.4976 34.4563 85.7195C54.1759 80.3744 79.0639 81.491 107.668 89.0112C153.381 101.027 158.215 101.728 170.431 98.1242C176.551 96.3197 185.436 91.9219 190.172 88.3523C193.714 85.6821 198.786 88.2068 198.786 92.6403V100.448C198.786 118.732 198.643 119.113 190.172 123.55C175.767 131.1 143.089 129.71 121.922 120.65C70.911 98.8175 46.5822 97.6956 4.44487 115.231C0.241214 116.98 -0.278281 116.073 0.469114 108.285C1.18213 100.815 3.08515 98.4656 11.9272 94.1393ZM162.679 121.299C166.692 120.727 168.306 118.608 168.306 113.919C168.306 106.369 161.505 103.747 156.752 109.463C152.249 114.882 155.944 122.259 162.679 121.299ZM0 139.133C0 128.591 5.58455 124.596 29.7649 117.832C48.8696 112.487 82.9787 113.964 95.9581 120.695C98.4812 122.004 97.5565 125.815 94.7137 125.824L80.0552 125.871C53.0309 125.958 37.2446 129.75 12.5898 142.076L8.26785 144.237C4.47 146.135 0 143.376 0 139.133ZM108.105 143.025C142.882 149.913 167.609 149.186 186.043 140.731C192.324 137.852 197.758 135.397 198.124 135.272C198.489 135.151 198.786 146.27 198.786 159.982V174.386C198.786 180.695 194.803 186.319 188.847 188.416C183.382 190.34 168.77 191.838 156.379 191.74C137.549 191.594 129.063 189.93 104.694 181.605C78.2449 172.572 73.4476 171.733 53.0097 172.574C35.4157 173.299 27.1091 175.069 15.0972 180.655L11.0702 182.528C5.95541 184.906 0.157705 180.946 0.519495 175.321C1.01893 167.581 5.57099 160.681 12.4924 157.17L20.3584 153.181C31.888 147.333 46.9825 142.25 58.6473 140.287C75.9973 137.363 80.8848 137.635 108.105 143.025ZM62.2148 158.748C64.4545 162.368 70.7705 162.286 73.0447 158.611C74.0333 157.015 73.1056 153.98 70.9852 151.863C67.6138 148.498 66.718 148.513 63.8183 152.001C61.9948 154.195 61.2739 157.23 62.2148 158.748ZM155.154 167.798C157.516 168.703 159.893 167.634 160.808 165.258C162.673 160.4 159.074 156.378 154.391 158.092C149.768 159.786 150.251 165.919 155.154 167.798ZM135.175 176.064C143.322 176.064 147.961 168.647 143.312 163.056C141.395 160.752 137.732 158.865 135.175 158.865C132.617 158.865 128.954 160.752 127.038 163.056C122.389 168.647 127.027 176.064 135.175 176.064ZM12.4308 196.508C18.5401 193.145 28.6782 189.311 34.9599 187.985C54.8067 183.794 81.2929 187.075 111.32 197.442C143.431 208.532 171.301 210.553 188.847 203.068C193.555 201.058 198.786 204.51 198.786 209.625V234.413C198.786 254.067 182.84 270 163.169 270H99.3136H33.5679C15.0623 270 0.175894 254.795 0.583127 236.31L1.0463 215.282C1.21895 207.443 5.5568 200.29 12.4308 196.508ZM46.8924 235.516C55.6681 230.738 58.0191 219.812 51.6394 213.443C46.4895 208.301 39.6433 207.915 34.0083 212.448C26.6691 218.351 26.375 224.575 33.0727 232.259C39.1795 239.263 39.7625 239.398 46.8924 235.516ZM63.0152 241.356C66.6756 245.011 74.2135 242.274 74.2135 237.289C74.2135 231.777 67.1739 229.994 63.3863 234.548C61.0327 237.379 60.9293 239.274 63.0152 241.356ZM168.69 247.432C171.073 244.177 171.293 241.348 169.435 237.882C164.619 228.899 152.697 233.527 154.16 243.812C155.265 251.597 164.038 253.78 168.69 247.432Z" fill="#40A3C0"/>
<path d="M263.448 103.864C261.08 103.864 259.16 103.32 257.688 102.232C256.216 101.08 255.064 99.32 254.232 96.952L235.512 44.824C234.488 41.944 234.648 39.512 235.992 37.528C237.4 35.48 239.864 34.456 243.384 34.456C245.752 34.456 247.608 35.032 248.952 36.184C250.296 37.272 251.352 39 252.12 41.368L266.424 84.28H261.912L277.272 41.368C278.168 39 279.288 37.272 280.632 36.184C281.976 35.032 283.704 34.456 285.816 34.456C287.928 34.456 289.624 35.032 290.904 36.184C292.184 37.272 293.24 39.032 294.072 41.464L308.472 84.28H304.632L319.32 41.368C320.088 39 321.112 37.272 322.392 36.184C323.736 35.032 325.592 34.456 327.96 34.456C330.904 34.456 333.048 35.48 334.392 37.528C335.8 39.512 335.96 41.944 334.872 44.824L315.96 97.048C315.128 99.352 313.976 101.08 312.504 102.232C311.096 103.32 309.208 103.864 306.84 103.864C304.408 103.864 302.456 103.32 300.984 102.232C299.576 101.08 298.456 99.32 297.624 96.952L284.088 58.936H286.488L272.664 97.048C271.768 99.352 270.616 101.08 269.208 102.232C267.8 103.32 265.88 103.864 263.448 103.864Z" fill="#40A3C0"/>
<path d="M342.218 103.864C340.234 103.864 338.57 103.416 337.226 102.52C335.882 101.56 335.05 100.28 334.73 98.68C334.41 97.016 334.698 95.16 335.594 93.112L359.498 41.656C360.65 39.16 362.058 37.336 363.722 36.184C365.45 35.032 367.402 34.456 369.578 34.456C371.754 34.456 373.642 35.032 375.242 36.184C376.906 37.336 378.346 39.16 379.562 41.656L403.466 93.112C404.49 95.16 404.842 97.016 404.522 98.68C404.266 100.344 403.466 101.624 402.122 102.52C400.842 103.416 399.242 103.864 397.322 103.864C394.762 103.864 392.778 103.288 391.37 102.136C390.026 100.984 388.81 99.128 387.722 96.568L382.538 84.376L389.258 89.272H349.706L356.522 84.376L351.338 96.568C350.186 99.128 349.002 100.984 347.786 102.136C346.57 103.288 344.714 103.864 342.218 103.864ZM369.386 53.752L358.25 80.344L355.562 75.736H383.498L380.81 80.344L369.578 53.752H369.386Z" fill="#40A3C0"/>
<path d="M429.443 103.864C426.627 103.864 424.451 103.096 422.915 101.56C421.379 99.96 420.611 97.752 420.611 94.936V49.72H405.539C403.171 49.72 401.347 49.112 400.067 47.896C398.851 46.616 398.243 44.824 398.243 42.52C398.243 40.152 398.851 38.36 400.067 37.144C401.347 35.928 403.171 35.32 405.539 35.32H453.347C455.715 35.32 457.507 35.928 458.723 37.144C460.003 38.36 460.643 40.152 460.643 42.52C460.643 44.824 460.003 46.616 458.723 47.896C457.507 49.112 455.715 49.72 453.347 49.72H438.275V94.936C438.275 97.752 437.539 99.96 436.067 101.56C434.595 103.096 432.387 103.864 429.443 103.864Z" fill="#40A3C0"/>
<path d="M475.672 103C472.664 103 470.36 102.232 468.76 100.696C467.224 99.096 466.456 96.824 466.456 93.88V44.44C466.456 41.496 467.224 39.256 468.76 37.72C470.36 36.12 472.664 35.32 475.672 35.32H508.216C510.52 35.32 512.248 35.896 513.4 37.048C514.552 38.2 515.128 39.864 515.128 42.04C515.128 44.28 514.552 46.008 513.4 47.224C512.248 48.376 510.52 48.952 508.216 48.952H483.352V61.816H506.104C508.344 61.816 510.04 62.392 511.192 63.544C512.408 64.696 513.016 66.392 513.016 68.632C513.016 70.872 512.408 72.568 511.192 73.72C510.04 74.872 508.344 75.448 506.104 75.448H483.352V89.368H508.216C510.52 89.368 512.248 89.976 513.4 91.192C514.552 92.344 515.128 94.008 515.128 96.184C515.128 98.424 514.552 100.12 513.4 101.272C512.248 102.424 510.52 103 508.216 103H475.672Z" fill="#40A3C0"/>
<path d="M534.257 103.864C531.441 103.864 529.265 103.096 527.729 101.56C526.193 99.96 525.425 97.752 525.425 94.936V44.248C525.425 41.368 526.193 39.16 527.729 37.624C529.329 36.088 531.537 35.32 534.353 35.32H557.969C565.649 35.32 571.569 37.208 575.729 40.984C579.953 44.696 582.065 49.88 582.065 56.536C582.065 60.824 581.105 64.568 579.185 67.768C577.329 70.904 574.609 73.336 571.025 75.064C567.505 76.728 563.153 77.56 557.969 77.56L558.737 75.832H563.345C566.097 75.832 568.529 76.504 570.641 77.848C572.753 79.128 574.513 81.112 575.921 83.8L580.721 92.44C581.745 94.296 582.225 96.12 582.161 97.912C582.097 99.64 581.393 101.08 580.049 102.232C578.769 103.32 576.881 103.864 574.385 103.864C571.889 103.864 569.841 103.352 568.241 102.328C566.705 101.304 565.329 99.704 564.113 97.528L555.377 81.496C554.609 80.088 553.617 79.128 552.401 78.616C551.249 78.04 549.905 77.752 548.369 77.752H543.089V94.936C543.089 97.752 542.353 99.96 540.881 101.56C539.409 103.096 537.201 103.864 534.257 103.864ZM543.089 65.272H554.801C558.193 65.272 560.785 64.6 562.577 63.256C564.369 61.912 565.265 59.832 565.265 57.016C565.265 54.328 564.369 52.312 562.577 50.968C560.785 49.56 558.193 48.856 554.801 48.856H543.089V65.272Z" fill="#40A3C0"/>
<path d="M245.304 199.864C242.744 199.864 240.76 199.16 239.352 197.752C238.008 196.344 237.336 194.36 237.336 191.8V138.52C237.336 135.896 238.072 133.912 239.544 132.568C241.016 131.16 243.096 130.456 245.784 130.456C248.024 130.456 249.784 130.904 251.064 131.8C252.408 132.632 253.624 134.04 254.712 136.024L275.352 173.08H271.992L292.536 136.024C293.688 134.04 294.904 132.632 296.184 131.8C297.528 130.904 299.32 130.456 301.56 130.456C304.12 130.456 306.072 131.16 307.416 132.568C308.824 133.912 309.528 135.896 309.528 138.52V191.8C309.528 194.36 308.856 196.344 307.512 197.752C306.168 199.16 304.184 199.864 301.56 199.864C299 199.864 297.016 199.16 295.608 197.752C294.264 196.344 293.592 194.36 293.592 191.8V158.776H295.608L280.152 185.656C279.256 187.064 278.296 188.12 277.272 188.824C276.312 189.528 275 189.88 273.336 189.88C271.736 189.88 270.424 189.528 269.4 188.824C268.376 188.12 267.448 187.064 266.616 185.656L251.064 158.68H253.272V191.8C253.272 194.36 252.6 196.344 251.256 197.752C249.912 199.16 247.928 199.864 245.304 199.864Z" fill="#40A3C0"/>
<path d="M354.628 200.056C347.78 200.056 341.764 198.616 336.58 195.736C331.396 192.792 327.364 188.696 324.484 183.448C321.668 178.2 320.26 172.088 320.26 165.112C320.26 159.864 321.06 155.096 322.66 150.808C324.324 146.52 326.66 142.84 329.668 139.768C332.74 136.696 336.388 134.36 340.612 132.76C344.836 131.096 349.508 130.264 354.628 130.264C361.476 130.264 367.46 131.704 372.58 134.584C377.764 137.464 381.796 141.528 384.676 146.776C387.556 151.96 388.996 158.072 388.996 165.112C388.996 170.36 388.164 175.128 386.5 179.416C384.9 183.704 382.564 187.416 379.492 190.552C376.484 193.624 372.868 195.992 368.644 197.656C364.42 199.256 359.748 200.056 354.628 200.056ZM354.628 185.272C358.02 185.272 360.9 184.472 363.268 182.872C365.636 181.272 367.46 178.968 368.74 175.96C370.02 172.952 370.66 169.336 370.66 165.112C370.66 158.776 369.252 153.848 366.436 150.328C363.62 146.808 359.684 145.048 354.628 145.048C351.3 145.048 348.42 145.848 345.988 147.448C343.62 148.984 341.796 151.256 340.516 154.264C339.236 157.208 338.596 160.824 338.596 165.112C338.596 171.448 340.004 176.408 342.82 179.992C345.636 183.512 349.572 185.272 354.628 185.272Z" fill="#40A3C0"/>
<path d="M407.681 199.864C404.993 199.864 402.945 199.16 401.537 197.752C400.129 196.344 399.425 194.264 399.425 191.512V139.192C399.425 136.376 400.129 134.232 401.537 132.76C402.945 131.224 404.801 130.456 407.105 130.456C409.153 130.456 410.753 130.84 411.905 131.608C413.057 132.376 414.337 133.656 415.745 135.448L446.177 173.464H443.489V138.712C443.489 136.024 444.161 133.976 445.505 132.568C446.913 131.16 448.961 130.456 451.649 130.456C454.337 130.456 456.353 131.16 457.697 132.568C459.105 133.976 459.809 136.024 459.809 138.712V191.896C459.809 194.328 459.169 196.28 457.889 197.752C456.609 199.16 454.881 199.864 452.705 199.864C450.529 199.864 448.801 199.48 447.521 198.712C446.305 197.88 444.993 196.6 443.585 194.872L413.153 156.76H415.841V191.512C415.841 194.264 415.137 196.344 413.729 197.752C412.385 199.16 410.369 199.864 407.681 199.864Z" fill="#40A3C0"/>
<path d="M497.327 200.056C494.767 200.056 492.079 199.864 489.263 199.48C486.511 199.16 483.887 198.648 481.391 197.944C478.895 197.24 476.655 196.408 474.671 195.448C472.943 194.616 471.727 193.528 471.023 192.184C470.319 190.776 470.063 189.304 470.255 187.768C470.447 186.232 470.991 184.888 471.887 183.736C472.783 182.52 473.967 181.72 475.439 181.336C476.911 180.888 478.575 181.08 480.431 181.912C482.863 183.064 485.615 183.96 488.687 184.6C491.759 185.24 494.639 185.56 497.327 185.56C501.551 185.56 504.495 185.016 506.159 183.928C507.887 182.776 508.751 181.368 508.751 179.704C508.751 178.232 508.143 177.048 506.927 176.152C505.775 175.256 503.695 174.488 500.687 173.848L489.455 171.448C483.311 170.168 478.735 167.928 475.727 164.728C472.719 161.528 471.215 157.4 471.215 152.344C471.215 149.016 471.887 146.008 473.231 143.32C474.639 140.568 476.591 138.232 479.087 136.312C481.647 134.392 484.655 132.92 488.111 131.896C491.631 130.808 495.535 130.264 499.823 130.264C503.151 130.264 506.511 130.648 509.903 131.416C513.359 132.12 516.335 133.208 518.831 134.68C520.303 135.448 521.359 136.504 521.999 137.848C522.639 139.192 522.895 140.6 522.767 142.072C522.639 143.48 522.127 144.728 521.231 145.816C520.399 146.904 519.247 147.64 517.775 148.024C516.367 148.344 514.671 148.088 512.687 147.256C510.831 146.424 508.719 145.816 506.351 145.432C504.047 144.984 501.807 144.76 499.631 144.76C497.263 144.76 495.247 145.048 493.583 145.624C491.919 146.136 490.639 146.904 489.743 147.928C488.911 148.952 488.495 150.136 488.495 151.48C488.495 152.824 489.039 153.976 490.127 154.936C491.279 155.832 493.359 156.6 496.367 157.24L507.503 159.64C513.711 160.984 518.351 163.192 521.423 166.264C524.495 169.336 526.031 173.336 526.031 178.264C526.031 181.592 525.359 184.6 524.015 187.288C522.671 189.976 520.751 192.28 518.255 194.2C515.759 196.056 512.751 197.496 509.231 198.52C505.711 199.544 501.743 200.056 497.327 200.056Z" fill="#40A3C0"/>
<path d="M558.068 199.864C555.252 199.864 553.076 199.096 551.54 197.56C550.004 195.96 549.236 193.752 549.236 190.936V145.72H534.164C531.796 145.72 529.972 145.112 528.692 143.896C527.476 142.616 526.868 140.824 526.868 138.52C526.868 136.152 527.476 134.36 528.692 133.144C529.972 131.928 531.796 131.32 534.164 131.32H581.972C584.34 131.32 586.132 131.928 587.348 133.144C588.628 134.36 589.268 136.152 589.268 138.52C589.268 140.824 588.628 142.616 587.348 143.896C586.132 145.112 584.34 145.72 581.972 145.72H566.9V190.936C566.9 193.752 566.164 195.96 564.692 197.56C563.22 199.096 561.012 199.864 558.068 199.864Z" fill="#40A3C0"/>
<path d="M604.297 199C601.289 199 598.985 198.232 597.385 196.696C595.849 195.096 595.081 192.824 595.081 189.88V140.44C595.081 137.496 595.849 135.256 597.385 133.72C598.985 132.12 601.289 131.32 604.297 131.32H636.841C639.145 131.32 640.873 131.896 642.025 133.048C643.177 134.2 643.753 135.864 643.753 138.04C643.753 140.28 643.177 142.008 642.025 143.224C640.873 144.376 639.145 144.952 636.841 144.952H611.977V157.816H634.729C636.969 157.816 638.665 158.392 639.817 159.544C641.033 160.696 641.641 162.392 641.641 164.632C641.641 166.872 641.033 168.568 639.817 169.72C638.665 170.872 636.969 171.448 634.729 171.448H611.977V185.368H636.841C639.145 185.368 640.873 185.976 642.025 187.192C643.177 188.344 643.753 190.008 643.753 192.184C643.753 194.424 643.177 196.12 642.025 197.272C640.873 198.424 639.145 199 636.841 199H604.297Z" fill="#40A3C0"/>
<path d="M662.882 199.864C660.066 199.864 657.89 199.096 656.354 197.56C654.818 195.96 654.05 193.752 654.05 190.936V140.248C654.05 137.368 654.818 135.16 656.354 133.624C657.954 132.088 660.162 131.32 662.978 131.32H686.594C694.274 131.32 700.194 133.208 704.354 136.984C708.578 140.696 710.69 145.88 710.69 152.536C710.69 156.824 709.73 160.568 707.81 163.768C705.954 166.904 703.234 169.336 699.65 171.064C696.13 172.728 691.778 173.56 686.594 173.56L687.362 171.832H691.97C694.722 171.832 697.154 172.504 699.266 173.848C701.378 175.128 703.138 177.112 704.546 179.8L709.346 188.44C710.37 190.296 710.85 192.12 710.786 193.912C710.722 195.64 710.018 197.08 708.674 198.232C707.394 199.32 705.506 199.864 703.01 199.864C700.514 199.864 698.466 199.352 696.866 198.328C695.33 197.304 693.954 195.704 692.738 193.528L684.002 177.496C683.234 176.088 682.242 175.128 681.026 174.616C679.874 174.04 678.53 173.752 676.994 173.752H671.714V190.936C671.714 193.752 670.978 195.96 669.506 197.56C668.034 199.096 665.826 199.864 662.882 199.864ZM671.714 161.272H683.426C686.818 161.272 689.41 160.6 691.202 159.256C692.994 157.912 693.89 155.832 693.89 153.016C693.89 150.328 692.994 148.312 691.202 146.968C689.41 145.56 686.818 144.856 683.426 144.856H671.714V161.272Z" fill="#40A3C0"/>
<path d="M237.24 256.36C236.066 256.36 235.16 256.04 234.52 255.4C233.88 254.733 233.56 253.813 233.56 252.64V231.16C233.56 229.933 233.88 229.013 234.52 228.4C235.16 227.76 236.066 227.44 237.24 227.44C238.44 227.44 239.346 227.76 239.96 228.4C240.6 229.013 240.92 229.933 240.92 231.16V239.88H241L250.72 229.16C251.226 228.627 251.76 228.213 252.32 227.92C252.906 227.6 253.56 227.44 254.28 227.44C255.4 227.44 256.2 227.733 256.68 228.32C257.186 228.88 257.413 229.547 257.36 230.32C257.333 231.067 257.026 231.76 256.44 232.4L246.76 242.68V239.68L256.92 251.16C257.613 251.933 257.96 252.733 257.96 253.56C257.96 254.36 257.68 255.027 257.12 255.56C256.586 256.093 255.786 256.36 254.72 256.36C253.813 256.36 253.08 256.187 252.52 255.84C251.986 255.467 251.4 254.92 250.76 254.2L241 243.28H240.92V252.64C240.92 253.813 240.613 254.733 240 255.4C239.386 256.04 238.466 256.36 237.24 256.36Z" fill="#40A3C0"/>
<path d="M275.329 256.44C272.929 256.44 270.849 256.027 269.089 255.2C267.356 254.347 266.023 253.147 265.089 251.6C264.156 250.053 263.689 248.227 263.689 246.12C263.689 244.093 264.129 242.32 265.009 240.8C265.916 239.253 267.143 238.053 268.689 237.2C270.263 236.32 272.049 235.88 274.049 235.88C275.516 235.88 276.849 236.12 278.049 236.6C279.249 237.053 280.276 237.733 281.129 238.64C281.983 239.52 282.623 240.587 283.049 241.84C283.503 243.093 283.729 244.493 283.729 246.04C283.729 246.573 283.583 246.973 283.289 247.24C282.996 247.48 282.529 247.6 281.889 247.6H269.649V244.24H278.529L277.889 244.76C277.889 243.773 277.756 242.973 277.489 242.36C277.223 241.747 276.823 241.28 276.289 240.96C275.783 240.64 275.143 240.48 274.369 240.48C273.543 240.48 272.823 240.68 272.209 241.08C271.623 241.453 271.169 242.013 270.849 242.76C270.529 243.507 270.369 244.44 270.369 245.56V245.92C270.369 247.813 270.783 249.173 271.609 250C272.463 250.8 273.769 251.2 275.529 251.2C276.116 251.2 276.783 251.133 277.529 251C278.303 250.84 279.036 250.627 279.729 250.36C280.423 250.093 281.023 250.053 281.529 250.24C282.036 250.4 282.423 250.693 282.689 251.12C282.983 251.52 283.143 251.987 283.169 252.52C283.196 253.027 283.076 253.533 282.809 254.04C282.543 254.52 282.103 254.893 281.489 255.16C280.556 255.587 279.556 255.907 278.489 256.12C277.449 256.333 276.396 256.44 275.329 256.44Z" fill="#40A3C0"/>
<path d="M301.117 256.44C298.717 256.44 296.637 256.027 294.877 255.2C293.143 254.347 291.81 253.147 290.877 251.6C289.943 250.053 289.477 248.227 289.477 246.12C289.477 244.093 289.917 242.32 290.797 240.8C291.703 239.253 292.93 238.053 294.477 237.2C296.05 236.32 297.837 235.88 299.837 235.88C301.303 235.88 302.637 236.12 303.837 236.6C305.037 237.053 306.063 237.733 306.917 238.64C307.77 239.52 308.41 240.587 308.837 241.84C309.29 243.093 309.517 244.493 309.517 246.04C309.517 246.573 309.37 246.973 309.077 247.24C308.783 247.48 308.317 247.6 307.677 247.6H295.437V244.24H304.317L303.677 244.76C303.677 243.773 303.543 242.973 303.277 242.36C303.01 241.747 302.61 241.28 302.077 240.96C301.57 240.64 300.93 240.48 300.157 240.48C299.33 240.48 298.61 240.68 297.997 241.08C297.41 241.453 296.957 242.013 296.637 242.76C296.317 243.507 296.157 244.44 296.157 245.56V245.92C296.157 247.813 296.57 249.173 297.397 250C298.25 250.8 299.557 251.2 301.317 251.2C301.903 251.2 302.57 251.133 303.317 251C304.09 250.84 304.823 250.627 305.517 250.36C306.21 250.093 306.81 250.053 307.317 250.24C307.823 250.4 308.21 250.693 308.477 251.12C308.77 251.52 308.93 251.987 308.957 252.52C308.983 253.027 308.863 253.533 308.597 254.04C308.33 254.52 307.89 254.893 307.277 255.16C306.343 255.587 305.343 255.907 304.277 256.12C303.237 256.333 302.183 256.44 301.117 256.44Z" fill="#40A3C0"/>
<path d="M319.704 263.56C318.584 263.56 317.718 263.253 317.104 262.64C316.491 262.027 316.184 261.133 316.184 259.96V239.52C316.184 238.373 316.478 237.493 317.064 236.88C317.678 236.267 318.544 235.96 319.664 235.96C320.811 235.96 321.678 236.267 322.264 236.88C322.878 237.493 323.184 238.373 323.184 239.52V241.84L322.744 239.88C323.118 238.68 323.891 237.72 325.064 237C326.264 236.253 327.624 235.88 329.144 235.88C330.851 235.88 332.344 236.293 333.624 237.12C334.931 237.947 335.944 239.12 336.664 240.64C337.384 242.16 337.744 244 337.744 246.16C337.744 248.267 337.384 250.093 336.664 251.64C335.944 253.187 334.931 254.373 333.624 255.2C332.344 256.027 330.851 256.44 329.144 256.44C327.678 256.44 326.358 256.093 325.184 255.4C324.011 254.707 323.224 253.8 322.824 252.68H323.304V259.96C323.304 261.133 322.984 262.027 322.344 262.64C321.731 263.253 320.851 263.56 319.704 263.56ZM326.904 251.2C327.624 251.2 328.251 251.027 328.784 250.68C329.344 250.307 329.784 249.76 330.104 249.04C330.424 248.293 330.584 247.333 330.584 246.16C330.584 244.373 330.238 243.093 329.544 242.32C328.851 241.52 327.971 241.12 326.904 241.12C326.184 241.12 325.544 241.293 324.984 241.64C324.424 241.987 323.984 242.533 323.664 243.28C323.344 244 323.184 244.96 323.184 246.16C323.184 247.92 323.531 249.2 324.224 250C324.918 250.8 325.811 251.2 326.904 251.2Z" fill="#40A3C0"/>
<path d="M369.954 256.44C367.954 256.44 366.301 256.133 364.994 255.52C363.714 254.907 362.754 253.987 362.114 252.76C361.474 251.507 361.154 249.947 361.154 248.08V241.56H359.794C358.941 241.56 358.274 241.333 357.794 240.88C357.341 240.427 357.114 239.773 357.114 238.92C357.114 238.067 357.341 237.427 357.794 237C358.274 236.547 358.941 236.32 359.794 236.32H361.154V233.84C361.154 232.667 361.461 231.773 362.074 231.16C362.688 230.547 363.568 230.24 364.714 230.24C365.861 230.24 366.741 230.547 367.354 231.16C367.968 231.773 368.274 232.667 368.274 233.84V236.32H371.554C372.434 236.32 373.101 236.547 373.554 237C374.034 237.427 374.274 238.067 374.274 238.92C374.274 239.773 374.034 240.427 373.554 240.88C373.101 241.333 372.434 241.56 371.554 241.56H368.274V247.84C368.274 248.827 368.501 249.56 368.954 250.04C369.434 250.493 370.181 250.72 371.194 250.72C371.568 250.72 371.928 250.68 372.274 250.6C372.621 250.52 372.941 250.48 373.234 250.48C373.661 250.453 374.008 250.587 374.274 250.88C374.541 251.147 374.674 251.773 374.674 252.76C374.674 253.56 374.554 254.24 374.314 254.8C374.074 255.333 373.648 255.72 373.034 255.96C372.661 256.093 372.154 256.2 371.514 256.28C370.874 256.387 370.354 256.44 369.954 256.44Z" fill="#40A3C0"/>
<path d="M384.489 256.36C383.369 256.36 382.502 256.053 381.889 255.44C381.275 254.827 380.969 253.933 380.969 252.76V231.04C380.969 229.867 381.275 228.973 381.889 228.36C382.502 227.747 383.369 227.44 384.489 227.44C385.635 227.44 386.515 227.747 387.129 228.36C387.769 228.973 388.089 229.867 388.089 231.04V239.76H387.449C388.089 238.507 388.995 237.547 390.169 236.88C391.369 236.213 392.729 235.88 394.249 235.88C395.822 235.88 397.115 236.187 398.129 236.8C399.142 237.387 399.902 238.32 400.409 239.6C400.915 240.853 401.169 242.44 401.169 244.36V252.76C401.169 253.933 400.862 254.827 400.249 255.44C399.635 256.053 398.755 256.36 397.609 256.36C396.462 256.36 395.582 256.053 394.969 255.44C394.355 254.827 394.049 253.933 394.049 252.76V244.64C394.049 243.44 393.835 242.587 393.409 242.08C393.009 241.573 392.409 241.32 391.609 241.32C390.542 241.32 389.689 241.667 389.049 242.36C388.409 243.027 388.089 243.933 388.089 245.08V252.76C388.089 255.16 386.889 256.36 384.489 256.36Z" fill="#40A3C0"/>
<path d="M419.546 256.44C417.146 256.44 415.066 256.027 413.306 255.2C411.573 254.347 410.24 253.147 409.306 251.6C408.373 250.053 407.906 248.227 407.906 246.12C407.906 244.093 408.346 242.32 409.226 240.8C410.133 239.253 411.36 238.053 412.906 237.2C414.48 236.32 416.266 235.88 418.266 235.88C419.733 235.88 421.066 236.12 422.266 236.6C423.466 237.053 424.493 237.733 425.346 238.64C426.2 239.52 426.84 240.587 427.266 241.84C427.72 243.093 427.946 244.493 427.946 246.04C427.946 246.573 427.8 246.973 427.506 247.24C427.213 247.48 426.746 247.6 426.106 247.6H413.866V244.24H422.746L422.106 244.76C422.106 243.773 421.973 242.973 421.706 242.36C421.44 241.747 421.04 241.28 420.506 240.96C420 240.64 419.36 240.48 418.586 240.48C417.76 240.48 417.04 240.68 416.426 241.08C415.84 241.453 415.386 242.013 415.066 242.76C414.746 243.507 414.586 244.44 414.586 245.56V245.92C414.586 247.813 415 249.173 415.826 250C416.68 250.8 417.986 251.2 419.746 251.2C420.333 251.2 421 251.133 421.746 251C422.52 250.84 423.253 250.627 423.946 250.36C424.64 250.093 425.24 250.053 425.746 250.24C426.253 250.4 426.64 250.693 426.906 251.12C427.2 251.52 427.36 251.987 427.386 252.52C427.413 253.027 427.293 253.533 427.026 254.04C426.76 254.52 426.32 254.893 425.706 255.16C424.773 255.587 423.773 255.907 422.706 256.12C421.666 256.333 420.613 256.44 419.546 256.44Z" fill="#40A3C0"/>
<path d="M461.099 256.36C460.113 256.36 459.313 256.133 458.699 255.68C458.086 255.2 457.606 254.467 457.259 253.48L449.459 231.76C449.033 230.56 449.099 229.547 449.659 228.72C450.246 227.867 451.273 227.44 452.739 227.44C453.726 227.44 454.499 227.68 455.059 228.16C455.619 228.613 456.059 229.333 456.379 230.32L462.339 248.2H460.459L466.859 230.32C467.233 229.333 467.699 228.613 468.259 228.16C468.819 227.68 469.539 227.44 470.419 227.44C471.299 227.44 472.006 227.68 472.539 228.16C473.073 228.613 473.513 229.347 473.859 230.36L479.859 248.2H478.259L484.379 230.32C484.699 229.333 485.126 228.613 485.659 228.16C486.219 227.68 486.993 227.44 487.979 227.44C489.206 227.44 490.099 227.867 490.659 228.72C491.246 229.547 491.313 230.56 490.859 231.76L482.979 253.52C482.633 254.48 482.153 255.2 481.539 255.68C480.953 256.133 480.166 256.36 479.179 256.36C478.166 256.36 477.353 256.133 476.739 255.68C476.153 255.2 475.686 254.467 475.339 253.48L469.699 237.64H470.699L464.939 253.52C464.566 254.48 464.086 255.2 463.499 255.68C462.913 256.133 462.113 256.36 461.099 256.36Z" fill="#40A3C0"/>
<path d="M502.716 256.44C501.196 256.44 499.85 256.16 498.676 255.6C497.53 255.04 496.623 254.28 495.956 253.32C495.316 252.333 494.996 251.213 494.996 249.96C494.996 248.52 495.37 247.387 496.116 246.56C496.863 245.733 498.063 245.147 499.716 244.8C501.37 244.427 503.57 244.24 506.316 244.24H508.516V247.6H506.316C505.276 247.6 504.41 247.68 503.716 247.84C503.05 247.973 502.556 248.2 502.236 248.52C501.916 248.813 501.756 249.2 501.756 249.68C501.756 250.293 501.97 250.8 502.396 251.2C502.85 251.6 503.49 251.8 504.316 251.8C504.983 251.8 505.57 251.653 506.076 251.36C506.61 251.067 507.036 250.667 507.356 250.16C507.676 249.627 507.836 249.013 507.836 248.32V243.68C507.836 242.72 507.583 242.04 507.076 241.64C506.596 241.24 505.756 241.04 504.556 241.04C503.916 241.04 503.196 241.12 502.396 241.28C501.596 241.413 500.703 241.667 499.716 242.04C498.996 242.307 498.383 242.347 497.876 242.16C497.37 241.973 496.97 241.653 496.676 241.2C496.41 240.747 496.276 240.253 496.276 239.72C496.303 239.187 496.476 238.68 496.796 238.2C497.143 237.72 497.663 237.347 498.356 237.08C499.636 236.6 500.81 236.28 501.876 236.12C502.97 235.96 503.97 235.88 504.876 235.88C507.063 235.88 508.863 236.2 510.276 236.84C511.716 237.453 512.783 238.413 513.476 239.72C514.196 241 514.556 242.653 514.556 244.68V252.76C514.556 253.933 514.276 254.827 513.716 255.44C513.156 256.053 512.343 256.36 511.276 256.36C510.183 256.36 509.343 256.053 508.756 255.44C508.196 254.827 507.916 253.933 507.916 252.76V251.72L508.156 252.28C508.023 253.133 507.716 253.867 507.236 254.48C506.756 255.093 506.13 255.573 505.356 255.92C504.583 256.267 503.703 256.44 502.716 256.44Z" fill="#40A3C0"/>
<path d="M532.531 256.44C530.531 256.44 528.877 256.133 527.571 255.52C526.291 254.907 525.331 253.987 524.691 252.76C524.051 251.507 523.731 249.947 523.731 248.08V241.56H522.371C521.517 241.56 520.851 241.333 520.371 240.88C519.917 240.427 519.691 239.773 519.691 238.92C519.691 238.067 519.917 237.427 520.371 237C520.851 236.547 521.517 236.32 522.371 236.32H523.731V233.84C523.731 232.667 524.037 231.773 524.651 231.16C525.264 230.547 526.144 230.24 527.291 230.24C528.437 230.24 529.317 230.547 529.931 231.16C530.544 231.773 530.851 232.667 530.851 233.84V236.32H534.131C535.011 236.32 535.677 236.547 536.131 237C536.611 237.427 536.851 238.067 536.851 238.92C536.851 239.773 536.611 240.427 536.131 240.88C535.677 241.333 535.011 241.56 534.131 241.56H530.851V247.84C530.851 248.827 531.077 249.56 531.531 250.04C532.011 250.493 532.758 250.72 533.771 250.72C534.144 250.72 534.504 250.68 534.851 250.6C535.197 250.52 535.517 250.48 535.811 250.48C536.237 250.453 536.584 250.587 536.851 250.88C537.117 251.147 537.251 251.773 537.251 252.76C537.251 253.56 537.131 254.24 536.891 254.8C536.651 255.333 536.224 255.72 535.611 255.96C535.238 256.093 534.731 256.2 534.091 256.28C533.451 256.387 532.931 256.44 532.531 256.44Z" fill="#40A3C0"/>
<path d="M553.367 256.44C550.967 256.44 548.887 256.027 547.127 255.2C545.393 254.347 544.06 253.147 543.127 251.6C542.193 250.053 541.727 248.227 541.727 246.12C541.727 244.093 542.167 242.32 543.047 240.8C543.953 239.253 545.18 238.053 546.727 237.2C548.3 236.32 550.087 235.88 552.087 235.88C553.553 235.88 554.887 236.12 556.087 236.6C557.287 237.053 558.313 237.733 559.167 238.64C560.02 239.52 560.66 240.587 561.087 241.84C561.54 243.093 561.767 244.493 561.767 246.04C561.767 246.573 561.62 246.973 561.327 247.24C561.033 247.48 560.567 247.6 559.927 247.6H547.687V244.24H556.567L555.927 244.76C555.927 243.773 555.793 242.973 555.527 242.36C555.26 241.747 554.86 241.28 554.327 240.96C553.82 240.64 553.18 240.48 552.407 240.48C551.58 240.48 550.86 240.68 550.247 241.08C549.66 241.453 549.207 242.013 548.887 242.76C548.567 243.507 548.407 244.44 548.407 245.56V245.92C548.407 247.813 548.82 249.173 549.647 250C550.5 250.8 551.807 251.2 553.567 251.2C554.153 251.2 554.82 251.133 555.567 251C556.34 250.84 557.073 250.627 557.767 250.36C558.46 250.093 559.06 250.053 559.567 250.24C560.073 250.4 560.46 250.693 560.727 251.12C561.02 251.52 561.18 251.987 561.207 252.52C561.233 253.027 561.113 253.533 560.847 254.04C560.58 254.52 560.14 254.893 559.527 255.16C558.593 255.587 557.593 255.907 556.527 256.12C555.487 256.333 554.433 256.44 553.367 256.44Z" fill="#40A3C0"/>
<path d="M572.074 256.36C570.901 256.36 569.994 256.053 569.354 255.44C568.741 254.827 568.434 253.933 568.434 252.76V239.52C568.434 238.373 568.728 237.493 569.314 236.88C569.928 236.267 570.794 235.96 571.914 235.96C573.034 235.96 573.888 236.267 574.474 236.88C575.061 237.493 575.354 238.373 575.354 239.52V241.16H574.954C575.221 239.56 575.901 238.293 576.994 237.36C578.114 236.427 579.501 235.933 581.154 235.88C581.928 235.853 582.501 236.053 582.874 236.48C583.274 236.88 583.488 237.64 583.514 238.76C583.514 239.72 583.314 240.48 582.914 241.04C582.514 241.6 581.754 241.933 580.634 242.04L579.714 242.12C578.301 242.253 577.274 242.653 576.634 243.32C575.994 243.96 575.674 244.92 575.674 246.2V252.76C575.674 253.933 575.368 254.827 574.754 255.44C574.141 256.053 573.248 256.36 572.074 256.36Z" fill="#40A3C0"/>
<path d="M608.623 256.36C607.45 256.36 606.53 256.04 605.863 255.4C605.223 254.733 604.903 253.787 604.903 252.56V231.6C604.903 230.373 605.223 229.44 605.863 228.8C606.53 228.133 607.49 227.8 608.743 227.8H622.063C623.023 227.8 623.743 228.04 624.223 228.52C624.703 229 624.943 229.693 624.943 230.6C624.943 231.533 624.703 232.253 624.223 232.76C623.743 233.24 623.023 233.48 622.063 233.48H612.263V239.16H621.183C622.117 239.16 622.823 239.4 623.303 239.88C623.81 240.36 624.063 241.053 624.063 241.96C624.063 242.893 623.81 243.6 623.303 244.08C622.823 244.56 622.117 244.8 621.183 244.8H612.263V252.56C612.263 255.093 611.05 256.36 608.623 256.36Z" fill="#40A3C0"/>
<path d="M640.269 256.44C637.709 256.44 635.816 255.76 634.589 254.4C633.389 253.013 632.789 250.933 632.789 248.16V231.04C632.789 229.867 633.096 228.973 633.709 228.36C634.322 227.747 635.189 227.44 636.309 227.44C637.456 227.44 638.336 227.747 638.949 228.36C639.589 228.973 639.909 229.867 639.909 231.04V247.92C639.909 248.907 640.096 249.627 640.469 250.08C640.869 250.533 641.376 250.76 641.989 250.76C642.176 250.76 642.362 250.747 642.549 250.72C642.762 250.667 642.989 250.627 643.229 250.6C643.682 250.6 644.016 250.773 644.229 251.12C644.469 251.467 644.589 252.173 644.589 253.24C644.589 254.173 644.402 254.88 644.029 255.36C643.656 255.813 643.082 256.107 642.309 256.24C642.096 256.267 641.789 256.307 641.389 256.36C640.989 256.413 640.616 256.44 640.269 256.44Z" fill="#40A3C0"/>
<path d="M660.06 256.44C657.873 256.44 655.967 256.027 654.34 255.2C652.713 254.373 651.447 253.187 650.54 251.64C649.633 250.093 649.18 248.267 649.18 246.16C649.18 244.56 649.433 243.133 649.94 241.88C650.447 240.6 651.18 239.52 652.14 238.64C653.1 237.733 654.247 237.053 655.58 236.6C656.913 236.12 658.407 235.88 660.06 235.88C662.247 235.88 664.153 236.293 665.78 237.12C667.407 237.947 668.66 239.133 669.54 240.68C670.447 242.2 670.9 244.027 670.9 246.16C670.9 247.733 670.647 249.16 670.14 250.44C669.633 251.72 668.9 252.813 667.94 253.72C667.007 254.6 665.86 255.28 664.5 255.76C663.167 256.213 661.687 256.44 660.06 256.44ZM660.06 251.2C660.78 251.2 661.42 251.027 661.98 250.68C662.54 250.307 662.967 249.76 663.26 249.04C663.58 248.293 663.74 247.333 663.74 246.16C663.74 244.373 663.393 243.093 662.7 242.32C662.007 241.52 661.127 241.12 660.06 241.12C659.34 241.12 658.7 241.293 658.14 241.64C657.58 241.987 657.14 242.533 656.82 243.28C656.5 244 656.34 244.96 656.34 246.16C656.34 247.92 656.687 249.2 657.38 250C658.073 250.8 658.967 251.2 660.06 251.2Z" fill="#40A3C0"/>
<path d="M685.815 256.36C684.908 256.36 684.121 256.147 683.455 255.72C682.788 255.267 682.255 254.573 681.855 253.64L676.415 240.48C676.068 239.653 675.948 238.907 676.055 238.24C676.161 237.547 676.481 237 677.015 236.6C677.575 236.173 678.335 235.96 679.295 235.96C680.121 235.96 680.801 236.16 681.335 236.56C681.868 236.933 682.348 237.68 682.775 238.8L686.615 248.88H685.775L689.815 238.04C690.081 237.32 690.441 236.8 690.895 236.48C691.375 236.133 691.975 235.96 692.695 235.96C693.468 235.96 694.081 236.133 694.535 236.48C694.988 236.827 695.348 237.347 695.615 238.04L699.655 248.88H698.935L702.815 238.56C703.188 237.547 703.668 236.867 704.255 236.52C704.841 236.147 705.468 235.96 706.135 235.96C707.041 235.96 707.735 236.173 708.215 236.6C708.695 237.027 708.961 237.587 709.015 238.28C709.095 238.973 708.961 239.72 708.615 240.52L703.215 253.6C702.841 254.533 702.321 255.227 701.655 255.68C700.988 256.133 700.201 256.36 699.295 256.36C698.361 256.36 697.561 256.133 696.895 255.68C696.255 255.227 695.735 254.533 695.335 253.6L690.935 242.6H693.855L689.695 253.52C689.321 254.48 688.815 255.2 688.175 255.68C687.535 256.133 686.748 256.36 685.815 256.36Z" fill="#40A3C0"/>
</svg>
